<svg width="1437" height="1437" viewBox="0 0 1437 1437" fill="none" xmlns="http://www.w3.org/2000/svg">
<mask id="mask0_5_89" style="mask-type:alpha" maskUnits="userSpaceOnUse" x="0" y="0" width="1437" height="1437">
<circle cx="718.5" cy="718.5" r="718.5" fill="#C4C4C4"/>
</mask>
<g mask="url(#mask0_5_89)">
<path d="M722 1431.82C1116.83 1431.82 1436.91 1111.74 1436.91 716.911C1436.91 322.079 1116.83 2.00003 722 2.00003C327.168 2.00003 7.08887 322.079 7.08887 716.911C7.08887 1111.74 327.168 1431.82 722 1431.82Z" fill="#231F20"/>
<path d="M1140.3 1121.55V341.488H908.699V639.072H639.255L637.69 640.538L830.973 860.159H908.699V1121.55H1140.3Z" fill="white"/>
<path d="M908.7 1114.15V1106.53L901.27 1113.11L905.038 1117.39L908.7 1114.15ZM908.7 1089.81V1082.19L889.219 1099.43L892.988 1103.71L908.7 1089.81ZM908.7 1065.47V1057.86L877.177 1085.75L880.937 1090.03L908.7 1065.47ZM908.7 1041.14V1033.52L865.118 1072.07L868.895 1076.35L908.7 1041.14ZM908.7 1016.81V1009.18L853.076 1058.4L856.853 1062.67L908.7 1016.81ZM908.7 992.467V984.849L841.034 1044.72L844.794 1049L908.7 992.467ZM908.7 968.121V960.51L828.975 1031.04L832.752 1035.32L908.7 968.121ZM908.7 943.782V936.172L816.933 1017.35L820.709 1021.63L908.7 943.782ZM908.7 919.444V911.833L804.891 1003.67L808.659 1007.95L908.7 919.444ZM908.7 895.105V887.495L792.848 989.993L796.608 994.278L908.7 895.105ZM908.7 870.767V863.156L780.79 976.313L784.566 980.597L908.7 870.767ZM893.184 860.158H884.583L768.747 962.64L772.516 966.916L893.184 860.158ZM865.684 860.158H857.066L756.697 948.96L760.473 953.244L865.684 860.158ZM822.086 850.049L818.309 845.773L732.612 921.59L736.372 925.874L822.086 850.049ZM810.035 836.368L806.267 832.092L720.553 907.917L724.33 912.194L810.035 836.368ZM797.993 822.687L794.233 818.403L708.511 894.237L712.288 898.521L797.993 822.687ZM785.951 809.007L782.182 804.722L696.469 880.556L700.229 884.84L785.951 809.007ZM773.9 795.318L770.14 791.033L684.427 866.883L688.187 871.16L773.9 795.318ZM761.866 781.637L758.098 777.361L672.368 853.203L676.144 857.487L761.866 781.637ZM749.824 767.948L746.055 763.672L660.326 839.514L664.094 843.806L749.824 767.948ZM737.781 754.276L734.005 749.991L648.275 825.833L652.043 830.118L737.781 754.276ZM725.739 740.587L721.962 736.302L636.225 812.161L640.001 816.437L725.739 740.587ZM713.689 726.906L709.92 722.622L624.182 798.48L627.951 802.764L713.689 726.906ZM791.415 633.795L787.663 629.503L776.841 639.079H785.443L791.415 633.795ZM779.413 620.09L775.653 615.797L749.332 639.079H757.942L779.413 620.09ZM767.404 606.377L763.635 602.084L721.815 639.079H730.433L767.404 606.377ZM755.386 592.671L751.626 588.379L694.306 639.079H702.916L755.386 592.671ZM743.376 578.958L739.608 574.665L666.805 639.079H675.407L743.376 578.958ZM731.359 565.236L727.599 560.96L639.297 639.079H647.898L731.359 565.236ZM551.904 716.404L555.664 720.68L641.435 644.805L637.658 640.529L551.904 716.404ZM563.946 730.076L567.723 734.361L653.477 658.486L649.709 654.202L563.946 730.076ZM575.989 743.757L579.765 748.042L665.528 672.175L661.751 667.891L575.989 743.757ZM588.039 757.438L591.807 761.73L677.562 685.848L673.793 681.571L588.039 757.438ZM701.646 713.217L697.886 708.941L612.132 784.799L615.908 789.084L701.646 713.217ZM600.089 771.127L603.85 775.403L689.604 699.536L685.836 695.26L600.089 771.127ZM719.349 551.531L715.581 547.246L539.845 702.723L543.622 707.008L719.349 551.531ZM707.332 537.817L703.571 533.533L535.299 682.407V690.026L707.332 537.817ZM695.322 524.112L691.554 519.82L535.299 658.068V665.687L695.322 524.112ZM683.304 510.407L679.552 506.114L535.299 633.73V641.357L683.304 510.407ZM671.295 496.693L667.543 492.401L535.299 609.399V617.018L671.295 496.693ZM659.277 482.988L655.525 478.695L535.299 585.061V592.68L659.277 482.988ZM647.267 469.275L643.516 464.982L535.299 560.722V568.341L647.267 469.275ZM635.25 455.569L631.498 451.277L535.299 536.384V543.994L635.25 455.569ZM623.24 441.856L619.488 437.563L535.299 512.045V519.656L623.24 441.856ZM611.239 428.134L607.471 423.858L535.299 487.707V495.317L611.239 428.134ZM599.221 414.429L595.461 410.136L535.299 463.376V470.979L599.221 414.429ZM587.212 400.724L583.443 396.431L535.299 439.038V446.648L587.212 400.724ZM575.194 387.01L571.434 382.718L535.299 414.691V422.31L575.194 387.01ZM563.184 373.305L559.416 369.012L535.299 390.353V397.971L563.184 373.305ZM535.299 341.675V349.294L539.157 345.886L535.389 341.594L535.299 341.675ZM551.167 359.591L547.406 355.299L535.299 366.014V373.633L551.167 359.591ZM838.167 860.158H830.974L830.351 859.461L744.654 935.279L748.423 939.555L838.167 860.158Z" fill="white"/>
<path d="M584.12 765.639L535.304 374.813V697.555L584.12 765.639Z" fill="#231F20"/>
<path d="M830.907 860.08L830.424 860.154L908.699 907.455V860.154H830.981L830.907 860.08Z" fill="#231F20"/>
<path d="M303.7 1121.55H535.297V341.486H303.7V1121.55Z" fill="white"/>
</g>
</svg>
